<svg xmlns="http://www.w3.org/2000/svg" width="47" height="46" viewBox="0 0 47 46" fill="none">
    <path d="M46.999 38.8801L46.7405 44.4191C46.7294 44.6564 46.5316 44.8579 46.2976 44.8703L40.8601 45.1336C40.6267 45.1449 40.3039 45.0176 40.1378 44.8496L37.5951 42.2594H32.6332C32.3998 42.2594 32.2103 42.0669 32.2103 41.8281V36.7735L31.6117 36.1638H26.6503C26.4169 36.1638 26.2273 35.9712 26.2273 35.7325V30.6784L23.3854 27.7834L20.9916 30.2213C20.8265 30.3895 20.5592 30.3895 20.3931 30.2213L18.0405 27.8249C13.2649 29.3058 7.86526 28.125 4.08924 24.2788C-1.36308 18.7247 -1.36308 9.71942 4.08924 4.16528C9.54113 -1.38843 18.3809 -1.38843 23.8336 4.16528C27.6093 8.01146 28.7685 13.5128 27.3141 18.378L46.7204 38.1449C46.8854 38.3141 47.0102 38.6424 46.9993 38.8807L46.999 38.8801ZM13.9618 7.93618C12.2578 6.20038 9.49513 6.20087 7.79229 7.93618C6.08779 9.67198 6.08779 12.4862 7.79229 14.2213C9.49578 15.9571 12.2581 15.9571 13.9618 14.2213C15.6663 12.4866 15.6663 9.67216 13.9618 7.93618Z" fill="#FFBB38"/>
</svg>