<svg width="201" height="48" viewBox="0 0 201 48" fill="none" xmlns="http://www.w3.org/2000/svg">
<g clip-path="url(#clip0_2929_860)">
<path d="M14.034 13.9366C13.9684 14.1352 13.9684 14.3338 13.9684 14.5655C13.9684 15.7904 15.9358 18.2069 19.3459 20.5904C19.6082 20.789 19.8705 20.9545 20.1656 21.1531C25.1824 24.4635 32.8552 27.6414 41.8395 27.6414C45.9382 27.6414 51.8731 26.7807 51.8731 21.8814C51.8731 21.5173 51.8403 21.12 51.7747 20.7559L49.3155 10.0304C48.7581 7.68001 48.2663 6.6207 44.1676 4.53518C40.987 2.88001 34.0684 0.165527 32.0026 0.165527C30.0681 0.165527 29.5106 2.64829 27.2482 2.64829C25.0513 2.64829 23.4446 0.794493 21.3788 0.794493C19.4114 0.794493 18.1327 2.15173 17.149 4.93242C17.1162 4.93242 14.3619 12.7779 14.034 13.9366C14.0012 13.9366 14.0012 13.9366 14.034 13.9366Z" fill="#102548"/>
<path d="M52.4633 23.8676C53.0207 26.5821 53.0207 26.8469 53.0207 27.211C53.0207 31.8455 47.8727 34.4276 41.0853 34.4276C25.7398 34.4276 12.3289 25.3572 12.3289 19.3655C12.3289 18.5379 12.4928 17.7104 12.8207 16.949C7.31206 17.2138 0.16394 18.2069 0.16394 24.5628C0.16394 34.9904 24.625 47.8345 44.0036 47.8345C58.8573 47.8345 62.5953 41.0483 62.5953 35.6855C62.5625 31.4814 58.9556 26.7145 52.4633 23.8676Z" fill="#102548"/>
<path d="M190.081 30.72C190.081 34.6593 192.442 36.5793 196.705 36.5793C198.016 36.5462 199.328 36.3476 200.607 36.0165V31.4482C199.787 31.7131 198.934 31.8455 198.082 31.8455C196.311 31.8455 195.655 31.2827 195.655 29.6276V22.6096H200.771V17.9089H195.655V11.9503L190.081 13.1751V17.9089H186.376V22.6096H190.048L190.081 30.72Z" fill="#102548"/>
<path d="M176.965 17.5779C174.178 17.5779 171.424 18.24 168.44 19.5972L170.44 23.7351C172.571 22.8413 174.375 22.2786 175.949 22.2786C178.244 22.2786 179.424 23.1724 179.424 25.0262V25.92C178.08 25.5558 176.67 25.3903 175.293 25.3903C170.604 25.3903 167.784 27.3765 167.784 30.9186C167.784 34.1627 170.342 36.6124 174.408 36.6124C176.375 36.6124 177.949 36.182 179.457 35.1889V36.3144H184.966V24.5296C184.966 20.0275 181.982 17.5779 176.965 17.5779ZM179.064 31.8124C177.982 32.4082 176.801 32.7062 175.588 32.6731C173.785 32.6731 172.735 31.9779 172.735 30.8193C172.735 29.5944 173.949 28.9986 175.785 28.9986C176.9 28.9986 178.015 29.131 179.097 29.4289V31.8124H179.064Z" fill="#102548"/>
<path d="M144.11 36.3476H150.045V26.7807H159.98V36.3145H165.915V11.9503H159.98V21.3186H150.045V11.9503H144.11V36.3476Z" fill="#102548"/>
<path d="M90.4336 26.582C93.1879 25.4565 94.9913 22.742 94.9913 19.7296C94.9913 15.36 91.5812 11.9503 86.466 11.9503H74.1044V36.3145H80.0393V27.4427H84.5642L89.122 36.3145H95.7455L90.4336 26.582ZM85.9086 22.5765H80.0393V17.0814H85.9086C87.876 17.0814 88.9908 18.3393 88.9908 19.8289C88.9908 21.3186 87.876 22.5765 85.9086 22.5765Z" fill="#102548"/>
<path d="M114.239 27.6414C114.239 21.7821 110.337 17.5779 105.025 17.5779C99.8442 17.5117 95.5816 21.6828 95.516 26.88C95.516 26.9462 95.516 27.0124 95.516 27.1117C95.516 32.4745 99.8442 36.6455 105.451 36.6455C108.533 36.6455 110.763 35.8179 113.058 33.8648L109.353 30.5545C108.501 31.4483 107.222 31.9448 105.714 31.9448C103.779 32.011 101.976 30.8524 101.221 29.0317H114.239V27.6414ZM101.156 25.0924C101.713 23.2717 103.09 22.1793 104.927 22.1793C106.697 22.1793 108.173 23.3379 108.763 25.0924H101.156Z" fill="#102548"/>
<path d="M130.207 11.9503V18.8689C128.797 18.0413 127.191 17.6441 125.551 17.6441C120.239 17.6441 116.075 21.782 116.075 27.0786C116.009 32.2427 120.108 36.4799 125.223 36.5462C125.289 36.5462 125.322 36.5462 125.387 36.5462C127.158 36.5462 128.863 35.9834 130.273 34.9572V36.3144H135.782V10.7255L130.207 11.9503ZM130.175 30.2896C129.125 31.2827 127.748 31.8124 126.305 31.7793C123.617 31.7793 121.518 29.7599 121.518 27.1117C121.518 24.4634 123.584 22.4441 126.305 22.4441C127.715 22.411 129.092 22.9406 130.175 23.8675V30.2896Z" fill="#102548"/>
</g>
<defs>
<clipPath id="clip0_2929_860">
<rect width="201" height="48" fill="white"/>
</clipPath>
</defs>
</svg>
